# xmcd
#
# Track frame offsets:
#	150
#	22800
#	41087
#	62700
#	80912
#	98225
#	115170
#	132645
#	148220
#	166450
#
# Disc length: 2510 seconds
#
# Revision: 0
# Processed by: cddbd v1.5.2PL0 Copyright (c) Steve Scherf et al.
# Submitted via: dBpowerAMP V4.0
#
DISCID=9009cc0a
DTITLE=Pedro Morán - Razones para Vivir
DYEAR=1997
DGENRE=Cantautor
TTITLE0=Celos por tu amor
TTITLE1=Mi gran consuelo
TTITLE2=Por ti daria mi vida
TTITLE3=A mis amigos
TTITLE4=Como un angel
TTITLE5=Estoy dispuesto
TTITLE6=Por la sombra
TTITLE7=Ganas de triunfar
TTITLE8=Me haces feliz
TTITLE9=Razones para vivir
EXTD=
EXTT0=
EXTT1=
EXTT2=
EXTT3=
EXTT4=
EXTT5=
EXTT6=
EXTT7=
EXTT8=
EXTT9=
PLAYORDER=
